<svg xmlns="http://www.w3.org/2000/svg" viewBox="0 0 512 512">
  <defs>
    <linearGradient id="grad1" x1="0%" y1="0%" x2="100%" y2="100%">
      <stop offset="0%" style="stop-color:#ffbe0b;stop-opacity:0.2" />
      <stop offset="100%" style="stop-color:#ffbe0b;stop-opacity:0.6" />
    </linearGradient>
  </defs>
  <rect width="512" height="512" rx="32" fill="url(#grad1)" />
  <path d="M368,160H144c-8.832,0-16,7.168-16,16v224c0,8.832,7.168,16,16,16h224c8.832,0,16-7.168,16-16V176C384,167.168,376.832,160,368,160z" fill="#f8f9fa" />
  <path fill="#ffbe0b" d="M256,200c30.928,0,56,25.072,56,56s-25.072,56-56,56s-56-25.072-56-56S225.072,200,256,200z"></path>
  <path fill="#ffbe0b" d="M336,322v-28c0-7.72-5.832-14.192-13.52-14.976C314.096,276.864,306,274.096,298.4,270l-12.096,20.928c-8.096,4.32-16.832,7.552-26.016,9.376L253.6,322h-82.4c0,13.232,10.768,24,24,24h116.8C325.232,346,336,335.232,336,322z"></path>
  <path fill="#ffbe0b" d="M208.8,322l6.688-21.68c-2.24-2.192-4.384-4.48-6.32-6.912l-24.064,5.92c-6.624,1.6-11.104,7.52-11.104,14.272V322H208.8z"></path>
</svg>
