<svg xmlns="http://www.w3.org/2000/svg" viewBox="0 0 512 512">
  <defs>
    <linearGradient id="grad1" x1="0%" y1="0%" x2="100%" y2="100%">
      <stop offset="0%" style="stop-color:#38b000;stop-opacity:0.2" />
      <stop offset="100%" style="stop-color:#38b000;stop-opacity:0.6" />
    </linearGradient>
  </defs>
  <rect width="512" height="512" rx="32" fill="url(#grad1)" />
  <path d="M368,160H144c-8.832,0-16,7.168-16,16v224c0,8.832,7.168,16,16,16h224c8.832,0,16-7.168,16-16V176C384,167.168,376.832,160,368,160z" fill="#f8f9fa" />
  <path fill="#38b000" d="M175,210h162c8.284,0,15,6.716,15,15c0,8.284-6.716,15-15,15H175c-8.284,0-15-6.716-15-15C160,216.716,166.716,210,175,210z"></path>
  <path fill="#38b000" d="M175,250h162c8.284,0,15,6.716,15,15c0,8.284-6.716,15-15,15H175c-8.284,0-15-6.716-15-15C160,256.716,166.716,250,175,250z"></path>
  <path fill="#38b000" d="M175,290h82c8.284,0,15,6.716,15,15c0,8.284-6.716,15-15,15h-82c-8.284,0-15-6.716-15-15C160,296.716,166.716,290,175,290z"></path>
</svg>
