<svg xmlns="http://www.w3.org/2000/svg" viewBox="0 0 512 512">
  <defs>
    <linearGradient id="grad1" x1="0%" y1="0%" x2="100%" y2="100%">
      <stop offset="0%" style="stop-color:#f72585;stop-opacity:0.2" />
      <stop offset="100%" style="stop-color:#f72585;stop-opacity:0.6" />
    </linearGradient>
  </defs>
  <rect width="512" height="512" rx="32" fill="url(#grad1)" />
  <path d="M368,160H144c-8.832,0-16,7.168-16,16v224c0,8.832,7.168,16,16,16h224c8.832,0,16-7.168,16-16V176C384,167.168,376.832,160,368,160z" fill="#f8f9fa" />
  <polygon fill="#f72585" points="224,220 224,292 288,256" />
  <path fill="#f72585" d="M256,340c-46.392,0-84-37.608-84-84s37.608-84,84-84s84,37.608,84,84S302.392,340,256,340z M256,196c-33.084,0-60,26.916-60,60s26.916,60,60,60s60-26.916,60-60S289.084,196,256,196z" />
</svg>
